<?xml version="1.0" encoding="UTF-8" standalone="no"?>
<svg
   xmlns:dc="http://purl.org/dc/elements/1.1/"
   xmlns:cc="http://creativecommons.org/ns#"
   xmlns:rdf="http://www.w3.org/1999/02/22-rdf-syntax-ns#"
   xmlns:svg="http://www.w3.org/2000/svg"
   xmlns="http://www.w3.org/2000/svg"
   xmlns:sodipodi="http://sodipodi.sourceforge.net/DTD/sodipodi-0.dtd"
   xmlns:inkscape="http://www.inkscape.org/namespaces/inkscape"
   width="287.83224mm"
   height="41.907776mm"
   viewBox="0 0 287.83224 41.907776"
   version="1.1"
   id="svg8"
   inkscape:version="1.0.2-2 (e86c870879, 2021-01-15)"
   sodipodi:docname="header.svg">
  <defs
     id="defs2" />
  <sodipodi:namedview
     id="base"
     pagecolor="#ffffff"
     bordercolor="#666666"
     borderopacity="1.0"
     inkscape:pageopacity="0.0"
     inkscape:pageshadow="2"
     inkscape:zoom="1"
     inkscape:cx="663.63487"
     inkscape:cy="322.77535"
     inkscape:document-units="mm"
     inkscape:current-layer="layer1"
     inkscape:document-rotation="0"
     showgrid="false"
     inkscape:window-width="1710"
     inkscape:window-height="1030"
     inkscape:window-x="151"
     inkscape:window-y="6"
     inkscape:window-maximized="0" />
  <metadata
     id="metadata5">
    <rdf:RDF>
      <cc:Work
         rdf:about="">
        <dc:format>image/svg+xml</dc:format>
        <dc:type
           rdf:resource="http://purl.org/dc/dcmitype/StillImage" />
        <dc:title></dc:title>
      </cc:Work>
    </rdf:RDF>
  </metadata>
  <g
     inkscape:label="Слой 1"
     inkscape:groupmode="layer"
     id="layer1"
     transform="translate(35.277781,-1.0065282)">
    <text
       xml:space="preserve"
       style="font-size:11.2889px;line-height:1.25;font-family:sans-serif;stroke-width:0.264583"
       x="19.654762"
       y="23.434523"
       id="text20"><tspan
         sodipodi:role="line"
         id="tspan18"
         x="19.654762"
         y="23.434523"
         style="font-size:11.2889px;fill:#ffffff;stroke-width:0.264583">Neverland Medicines Registration Agency</tspan></text>
    <text
       xml:space="preserve"
       style="font-size:8.46667px;line-height:1.25;font-family:sans-serif;stroke-width:0.264583"
       x="19.049999"
       y="18.520834"
       id="text80"><tspan
         sodipodi:role="line"
         id="tspan78"
         x="19.049999"
         y="18.520834"
         style="stroke-width:0.264583"></tspan></text>
    <g
       id="g120"
       transform="matrix(0.09646269,0,0,0.08188412,-35.277781,1.0065793)">
      <path
         d="M 168.35156,142.91797 C 129.89844,104.46875 67.335938,104.46875 28.882812,142.92187 10.257812,161.54687 0,186.3125 0,212.65234 c 0,26.34375 10.257812,51.10938 28.882812,69.73438 19.226563,19.22656 44.480469,28.83984 69.734376,28.83984 25.253902,0 50.507812,-9.61328 69.734372,-28.83984 38.44922,-38.44922 38.44922,-101.01563 0,-139.46875 z m 0,0"
         fill="#ffd039"
         id="path82" />
      <path
         d="m 168.35156,247.30469 c -19.22656,19.22656 -44.48047,28.83984 -69.734372,28.83984 -25.253907,0 -50.507813,-9.61328 -69.734376,-28.83984 C 14.460938,232.88281 5.058594,214.77734 1.550781,195.11328 0.527344,200.84375 0,206.70703 0,212.65234 c 0,26.34375 10.257812,51.10938 28.882812,69.73438 19.226563,19.22656 44.480469,28.83984 69.734376,28.83984 25.253902,0 50.507812,-9.61328 69.734372,-28.83984 23.69531,-23.69531 32.76563,-56.54688 27.25391,-87.27344 -3.42969,19.12891 -12.5,37.4375 -27.25391,52.19141 z m 0,0"
         fill="#ffae47"
         id="path84" />
      <path
         d="M 354.76562,16.609375 C 333.17578,6.40625 304.51562,0.519531 274.0625,0.03125 243.62109,-0.449219 214.77734,4.515625 192.87109,14.023438 169.06641,24.359375 155.8125,39.109375 155.55078,55.554688 155.28906,72 168.06641,87.164062 191.52734,98.253906 c 21.58985,10.203124 50.25,16.089844 80.70313,16.574224 1.36328,0.0234 2.72265,0.0352 4.07812,0.0352 28.94141,0 56.1875,-4.9414 77.10938,-14.02734 23.80859,-10.332034 37.0625,-25.082034 37.32422,-41.527346 0.26172,-16.445313 -12.51563,-31.609375 -35.97657,-42.699219 z m 0,0"
         fill="#ff9522"
         id="path86" />
      <path
         d="m 353.41797,66.722656 c -20.92188,9.082032 -48.16797,14.023438 -77.10938,14.023438 -1.35547,0 -2.71484,-0.01172 -4.07812,-0.03516 C 241.77734,80.226562 213.11719,74.339844 191.52734,64.136719 176.75,57.152344 166.21484,48.546875 160.50391,39.027344 157.33203,44.25 155.64453,49.796875 155.55078,55.554688 155.28906,72 168.06641,87.164062 191.52734,98.253906 c 21.58985,10.203124 50.25,16.089844 80.70313,16.578124 1.36328,0.0195 2.72265,0.0312 4.07812,0.0312 28.94141,0 56.1875,-4.9414 77.10938,-14.02344 23.80859,-10.335934 37.0625,-25.085934 37.32422,-41.531246 0.0976,-6.085938 -1.59375,-11.996094 -4.94922,-17.589844 -5.89063,9.699219 -16.89844,18.285156 -32.375,25.003906 z m 0,0"
         fill="#dd7917"
         id="path88" />
      <path
         d="m 388.76172,388.76172 95.37109,-95.2461 C 502.08594,275.58594 511.98438,251.73437 512,226.35937 c 0.0156,-25.375 -9.85156,-49.23828 -27.78125,-67.1914 -17.92969,-17.95703 -41.78125,-27.85547 -67.15625,-27.8711 -0.0234,0 -0.043,0 -0.0664,0 -25.35156,0 -49.1875,9.86719 -67.1289,27.78125 l -95.3711,95.2461 c -0.0273,0.0273 -0.0547,0.0625 -0.082,0.0898 z m 0,0"
         fill="#e93234"
         id="path90" />
      <path
         d="m 254.41406,254.41406 c 0.0273,-0.0312 0.0508,-0.0625 0.082,-0.0898 l -95.375,95.24609 c -17.95312,17.9336 -27.85156,41.78125 -27.86718,67.15625 -0.0195,25.37891 9.84765,49.24219 27.78125,67.19531 17.92968,17.95704 41.78125,27.85157 67.15625,27.8711 h 0.0625 c 25.35156,0 49.1914,-9.86719 67.13281,-27.78125 l 95.37109,-95.2461 c 0,-0.004 0,-0.004 0.004,-0.004 z m 0,0"
         fill="#f9f1ef"
         id="path92" />
      <path
         d="m 512,226.35937 c 0.0156,-25.375 -9.85156,-49.23828 -27.78125,-67.1914 -4.05078,-4.05469 -8.40625,-7.69531 -13.00781,-10.91016 11.03515,15.8125 16.97265,34.58594 16.96093,54.27344 -0.0195,25.375 -9.91406,49.22656 -27.87109,67.15625 l -95.36719,95.24219 23.82813,23.83203 95.37109,-95.2461 C 502.08594,275.58594 511.98438,251.73437 512,226.35937 Z m 0,0"
         fill="#bf161c"
         id="path94" />
      <path
         d="m 388.76172,388.76172 -23.83203,-23.83203 v 0.004 l -95.375,95.25 c -17.94141,17.91407 -41.77735,27.77735 -67.12891,27.77735 -0.0234,0 -0.043,0 -0.0625,0 -19.64453,-0.0117 -38.375,-5.94922 -54.15234,-16.96094 3.1914,4.57031 6.80078,8.89844 10.82031,12.92188 17.93359,17.95703 41.78125,27.85546 67.16016,27.87109 h 0.0625 c 25.35156,0 49.1914,-9.86328 67.1289,-27.78125 l 95.375,-95.24609 c 0,-0.004 0,-0.004 0.004,-0.004 z m 0,0"
         fill="#cccccc"
         id="path96" />
      <path
         d="m 168.35156,142.91797 c -1.78515,-1.78516 -3.64062,-3.46094 -5.52734,-5.07813 L 23.777344,276.88672 c 1.625,1.88672 3.328125,3.72265 5.105468,5.5 1.789063,1.78906 3.640626,3.46094 5.527344,5.08203 L 173.43359,148.44531 c -1.62109,-1.88281 -3.29687,-3.73828 -5.08203,-5.52734 z m 0,0"
         fill="#ff9522"
         id="path98" />
      <path
         d="m 266.13281,0.046875 -0.89062,114.566405 c 2.3164,0.10156 4.64453,0.17969 6.98828,0.21875 1.36328,0.0195 2.71875,0.0312 4.07422,0.0312 1.32031,0 2.625,-0.0234 3.9375,-0.043 L 281.13281,0.253906 c -2.34375,-0.101562 -4.69922,-0.1835935 -7.07031,-0.222656 -2.65625,-0.0390625 -5.30078,-0.02734375 -7.92969,0.015625 z m 0,0"
         fill="#dd7917"
         id="path100" />
    </g>
  </g>
</svg>
